Coordinates
version=1
nRows=29
nColumns=24
inDegrees=yes

Units are S.I. units (second, meters, Newtons, ...)
Angles are in degrees.

endheader
time	pelvis_tilt	pelvis_list	pelvis_rotation	pelvis_tx	pelvis_ty	pelvis_tz	hip_flexion_r	hip_adduction_r	hip_rotation_r	knee_angle_r	ankle_angle_r	subtalar_angle_r	mtp_angle_r	hip_flexion_l	hip_adduction_l	hip_rotation_l	knee_angle_l	ankle_angle_l	subtalar_angle_l	mtp_angle_l	lumbar_extension	lumbar_bending	lumbar_rotation
      1.75700000	      1.50176593	      5.58894583	     -3.83847372	      1.40408530	      1.01759529	      0.28625416	     13.90409367	     -8.21253773	      1.24456910	    -67.78282078	     -2.38550764	     -2.47173904	      6.98403380	      2.87784011	     10.87375471	      6.43769253	     -8.75168484	      4.21710949	    -14.72246728	     -6.03377701	    -11.97498710	     -1.14620775	     -1.89164203
      1.76116667	      1.54436268	      5.36972082	     -3.63013995	      1.40852232	      1.01830361	      0.28567716	     14.33633009	     -7.93684779	      1.11861950	    -67.31073233	     -1.52575787	     -2.25096618	      6.81414600	      2.28786723	     10.67001026	      6.75237487	     -8.28439976	      4.17905540	    -14.77175163	     -6.03118685	    -12.06013229	     -0.82572457	     -2.19499687
      1.76533333	      1.60552516	      5.16651392	     -3.42836398	      1.41294552	      1.01898170	      0.28511213	     14.74673382	     -7.68533840	      0.99200097	    -66.80024282	     -0.69097758	     -2.06328617	      6.63022587	      1.69316735	     10.48026873	      7.04612874	     -7.83615791	      4.14759019	    -14.81767051	     -6.02791738	    -12.16497691	     -0.52761644	     -2.46752875
      1.76950000	      1.65764790	      4.94860929	     -3.22793729	      1.41732140	      1.01961291	      0.28456425	     15.15457243	     -7.41376514	      0.86995411	    -66.23666332	      0.07977093	     -1.90118765	      6.51229996	      1.11876838	     10.26728468	      7.30685196	     -7.40445361	      4.17734284	    -14.80308897	     -6.02578391	    -12.26224494	     -0.20704147	     -2.69293214
      1.77366667	      1.70369918	      4.74947947	     -3.02803791	      1.42174175	      1.02016720	      0.28402445	     15.56087985	     -7.16955925	      0.73868310	    -65.64167387	      0.81136122	     -1.81083334	      6.38404105	      0.55316663	     10.07086467	      7.57556404	     -6.97580990	      4.16354939	    -14.81608360	     -6.02355405	    -12.34514988	      0.08651239	     -2.95728127
      1.77783333	      1.74630147	      4.57368893	     -2.83230934	      1.42611392	      1.02066592	      0.28351464	     15.97001938	     -6.94901405	      0.61489548	    -65.01295998	      1.51610658	     -1.79064628	      6.18101007	     -0.00379496	      9.89511083	      7.85969639	     -6.53996525	      4.08237541	    -14.89786506	     -6.02108167	    -12.42473447	      0.34246306	     -3.25856295
      1.78200000	      1.77278056	      4.37766880	     -2.63309334	      1.43048381	      1.02110291	      0.28299577	     16.38247108	     -6.71138482	      0.48063470	    -64.33411127	      2.16248285	     -1.76225124	      6.02325128	     -0.53267434	      9.69232481	      8.11337517	     -6.12791433	      4.10008692	    -14.90614457	     -6.01718554	    -12.49513979	      0.64020846	     -3.46807630
      1.78616667	      1.79210512	      4.18046862	     -2.41905511	      1.43482097	      1.02149153	      0.28249822	     16.78627844	     -6.46943811	      0.33745090	    -63.61098513	      2.78461599	     -1.83321108	      5.93869616	     -1.01094599	      9.48377209	      8.31636623	     -5.80474473	      4.11476781	    -14.86611355	     -6.01300428	    -12.56643975	      0.90062146	     -3.61548900
      1.79033333	      1.84169221	      4.03501308	     -2.24199626	      1.43922817	      1.02183719	      0.28201749	     17.16082920	     -6.29404311	      0.21709538	    -62.87299027	      3.36102904	     -1.92835817	      5.48799056	     -1.59197340	      9.33283665	      8.65409168	     -5.32282459	      3.98572709	    -15.11622044	     -5.99451092	    -12.61991771	      1.14721316	     -3.97908644
      1.79450000	      1.86012942	      3.84825460	     -2.03327785	      1.44355952	      1.02213568	      0.28156031	     17.54430086	     -6.06391646	      0.08361398	    -62.07057734	      3.88867017	     -2.05146297	      5.39123301	     -2.06216459	      9.12491202	      8.84568254	     -4.99982817	      4.03676987	    -15.00741938	     -5.98472469	    -12.70274593	      1.38970053	     -4.08917065
      1.79866667	      1.86732864	      3.71843398	     -1.83350099	      1.44790983	      1.02232157	      0.28107660	     17.95151520	     -5.91292855	     -0.05351823	    -61.27221290	      4.40622966	     -2.19231310	      4.70069048	     -2.56522491	      8.98272041	      9.20270293	     -4.58015594	      3.92618932	    -15.25449435	     -5.93166906	    -12.73330287	      1.62996168	     -4.46213932
      1.80283333	      1.92866921	      3.55960977	     -1.65022538	      1.45226730	      1.02257985	      0.28067352	     18.26727254	     -5.71789618	     -0.17752081	    -60.39664831	      4.81898582	     -2.48842124	      4.46982264	     -3.08646997	      8.79747727	      9.35933549	     -4.23399244	      3.95189367	    -15.12579411	     -5.91156045	    -12.85170270	      1.84775430	     -4.61791559
      1.80700000	      1.91976491	      3.41079076	     -1.44442819	      1.45662429	      1.02268905	      0.28024248	     18.65032602	     -5.54167143	     -0.31448934	    -59.49634325	      5.24343985	     -2.71734339	      4.36779738	     -3.51647663	      8.62180749	      9.55491050	     -3.92346647	      3.99425071	    -15.10341419	     -5.89835251	    -12.86371761	      2.06390297	     -4.76010611
      1.81116667	      1.96963493	      3.27408006	     -1.26673086	      1.46099498	      1.02283520	      0.27985463	     18.96139023	     -5.37491714	     -0.42862367	    -58.55836890	      5.55132525	     -3.06520406	      4.18489746	     -4.04483260	      8.45620172	      9.80668752	     -3.53644339	      3.98122308	    -15.15510098	     -5.87532701	    -12.94655186	      2.28921536	     -5.03754166
      1.81533333	      1.93098188	      3.15816282	     -1.05841335	      1.46532752	      1.02280184	      0.27944468	     19.36291103	     -5.23924725	     -0.56055914	    -57.60887608	      5.93970871	     -3.37719524	      4.06900561	     -4.42583019	      8.31029637	     10.02119808	     -3.25320615	      3.98605977	    -15.16155766	     -5.85832968	    -12.95061329	      2.47141733	     -5.18098012
      1.81950000	      1.96336717	      3.05938657	     -0.89881732	      1.46973123	      1.02282814	      0.27911751	     19.67395822	     -5.10945251	     -0.64410402	    -56.61138497	      6.15621657	     -3.78946083	      3.84554718	     -4.93366998	      8.17887769	     10.28402932	     -2.86694475	      3.94394733	    -15.27501661	     -5.82688110	    -12.99502226	      2.63278465	     -5.46513437
      1.82366667	      1.97046710	      2.96446212	     -0.71549987	      1.47408381	      1.02278794	      0.27876909	     19.99633804	     -4.99345432	     -0.74842150	    -55.58619244	      6.40605344	     -4.19262472	      3.60391404	     -5.37979578	      8.04885392	     10.53390656	     -2.54206933	      3.91878067	    -15.35375288	     -5.78996159	    -13.03093601	      2.78948303	     -5.67708643
      1.82783333	      1.98765099	      2.87400539	     -0.54325091	      1.47844841	      1.02272492	      0.27845420	     20.29346104	     -4.87985825	     -0.83946369	    -54.52407500	      6.61966678	     -4.61554275	      3.37595920	     -5.83731000	      7.91948516	     10.74839624	     -2.21708572	      3.91838079	    -15.39998473	     -5.75709235	    -13.07717235	      2.93339780	     -5.85581445
      1.83200000	      1.98838502	      2.80256518	     -0.38505437	      1.48280573	      1.02258148	      0.27817114	     20.60480640	     -4.78327530	     -0.91014748	    -53.44325687	      6.77994646	     -5.06483297	      3.12335129	     -6.26854751	      7.80938954	     10.96909611	     -1.90765934	      3.91912671	    -15.45048071	     -5.72089670	    -13.11148115	      3.06197868	     -6.06235883
      1.83616667	      1.96709376	      2.72164228	     -0.22493580	      1.48722116	      1.02239708	      0.27789495	     20.91018229	     -4.67820263	     -0.98052787	    -52.31596807	      6.95097545	     -5.49689896	      2.97269314	     -6.66230546	      7.68683834	     11.12993837	     -1.63104060	      3.96359253	    -15.44103929	     -5.69788434	    -13.10719523	      3.19761205	     -6.18057334
      1.84033333	      1.96196743	      2.65510026	     -0.06986740	      1.49160143	      1.02220107	      0.27763599	     21.18798737	     -4.59201689	     -1.05024110	    -51.15437984	      7.03021833	     -5.98350977	      2.81470567	     -7.07975068	      7.57565101	     11.30997097	     -1.33675980	      4.00812057	    -15.43682594	     -5.67421334	    -13.13078438	      3.31237200	     -6.35102299
      1.84450000	      1.95224118	      2.60664947	      0.07532236	      1.49601729	      1.02194800	      0.27740272	     21.46167182	     -4.52534330	     -1.10699554	    -49.97585494	      7.10068799	     -6.45149722	      2.66587661	     -7.49723608	      7.48058172	     11.47448549	     -1.03065173	      4.05345269	    -15.42713394	     -5.65404419	    -13.14224271	      3.41008125	     -6.52172033
      1.84866667	      1.93011900	      2.58372106	      0.17463055	      1.50046043	      1.02162624	      0.27724058	     21.74550109	     -4.47199866	     -1.11197858	    -48.78419210	      7.07972979	     -6.92878822	      2.46157425	     -7.91466612	      7.41415947	     11.61511902	     -0.69698091	      4.11201557	    -15.44089218	     -5.62884434	    -13.13219311	      3.47464198	     -6.71802054
      1.85283333	      1.92262175	      2.53507285	      0.31294865	      1.50486615	      1.02132877	      0.27704170	     21.97848940	     -4.40803812	     -1.16555468	    -47.53639705	      7.10716538	     -7.38270668	      2.30330159	     -8.32400388	      7.31395530	     11.75442047	     -0.40988832	      4.17998443	    -15.40858985	     -5.61174848	    -13.16320562	      3.56722796	     -6.85869350
      1.85700000	      1.89508310	      2.50859743	      0.40782828	      1.50935684	      1.02096148	      0.27690802	     22.22435667	     -4.35594757	     -1.17661576	    -46.26629022	      7.05026436	     -7.83217419	      2.12517799	     -8.73842000	      7.23733198	     11.85534571	     -0.07295147	      4.24901257	    -15.37112844	     -5.59670797	    -13.14973733	      3.62730998	     -7.01876383
      1.86116667	      1.93292100	      2.49067501	      0.52402426	      1.51383504	      1.02063613	      0.27671535	     22.38141531	     -4.33563551	     -1.22578743	    -44.98001935	      7.08766902	     -8.11875449	     -0.11787570	     -9.23869689	      7.16565197	     12.08304202	      0.29506735	      4.24168504	    -15.54109125	     -5.46398488	    -13.17955044	      3.73347057	     -7.35740711
      1.86533333	      1.84523776	      2.48145721	      0.61146152	      1.51828101	      1.02013229	      0.27662541	     22.66415455	     -4.29324095	     -1.19649251	    -43.65366623	      6.96056175	     -8.58716753	     -0.19638014	     -9.54834462	      7.10787055	     12.11504952	      0.55049843	      4.37408768	    -15.35752852	     -5.46056148	    -13.12295078	      3.75464726	     -7.32535855
      1.86950000	      1.81926958	      2.47012656	      0.67904845	      1.52278980	      1.01967416	      0.27655147	     22.86006219	     -4.25784652	     -1.18910745	    -42.30106129	      6.83597093	     -8.95482964	     -0.27958815	     -9.95269436	      7.04518044	     12.13161092	      0.85947801	      4.51443045	    -15.20039656	     -5.46128812	    -13.12216044	      3.78594950	     -7.42204667
      1.87366667	      1.78085105	      2.48702766	      0.74583311	      1.52726784	      1.01914677	      0.27647598	     23.06512099	     -4.25325984	     -1.16434655	    -40.93823376	      6.68312634	     -9.30101585	     -0.38950075	    -10.33378341	      7.01416115	     12.16473726	      1.15202188	      4.65408761	    -15.06637687	     -5.46809833	    -13.09590659	      3.80623001	     -7.57878126
